<?xml version="1.0" encoding="utf-8"?>
<!-- Generator: Adobe Illustrator 16.0.3, SVG Export Plug-In . SVG Version: 6.00 Build 0)  -->
<!DOCTYPE svg PUBLIC "-//W3C//DTD SVG 1.1//EN" "http://www.w3.org/Graphics/SVG/1.1/DTD/svg11.dtd">
<svg version="1.1" id="Layer_1" xmlns="http://www.w3.org/2000/svg" xmlns:xlink="http://www.w3.org/1999/xlink" x="0px" y="0px"
	 width="50px" height="50px" viewBox="0 0 50 50" enable-background="new 0 0 50 50" xml:space="preserve">
<path fill="#FFFFFF" d="M35,34h-0.342l-3.146-7H19.293l-3.146,7H15c-1.657,0-3,1.343-3,3s1.343,3,3,3v3h3v-3h14v3h3v-3
	c1.657,0,3-1.343,3-3S36.657,34,35,34z M20.939,29h8.471l2.093,4.398H18.847L20.939,29z M14.646,37.416
	c0-0.829,0.672-1.501,1.501-1.501s1.501,0.672,1.501,1.501s-0.672,1.501-1.501,1.501S14.646,38.245,14.646,37.416z M33.854,38.917
	c-0.83,0-1.502-0.672-1.502-1.501s0.672-1.501,1.502-1.501c0.828,0,1.5,0.672,1.5,1.501S34.682,38.917,33.854,38.917z"/>
<g>
	<polygon fill="#FFFFFF" points="46,43 43,43 43,26.826 24.501,8.878 6,26.854 6,43 3,43 3,25.586 24.499,4.697 46,25.557 	"/>
</g>
</svg>
