<?xml version="1.0" encoding="utf-8"?>
<!-- Generator: Adobe Illustrator 16.0.3, SVG Export Plug-In . SVG Version: 6.00 Build 0)  -->
<!DOCTYPE svg PUBLIC "-//W3C//DTD SVG 1.1//EN" "http://www.w3.org/Graphics/SVG/1.1/DTD/svg11.dtd">
<svg version="1.1" id="Layer_1" xmlns="http://www.w3.org/2000/svg" xmlns:xlink="http://www.w3.org/1999/xlink" x="0px" y="0px"
	 width="141.5px" height="50px" viewBox="0 0 141.5 50" enable-background="new 0 0 141.5 50" xml:space="preserve">
<g>
	<path fill="#0079BE" d="M42,17.831V6.371h-7v4.46L28,3.83L3.459,28.371H15v18h5v-11h8v11h14v-18h10.539L42,17.831z M39,39.371h-8
		v-7h8V39.371z"/>
	<g>
		<g>
			<path fill="#0079BE" d="M44.246,33.774h2.63v4.203h0.029c0.206-0.367,0.427-0.735,0.632-1.088l1.91-3.115h3.263l-3.145,4.218
				l3.262,5.687h-3.071l-2.086-4.012l-0.794,1.014v2.998h-2.63V33.774z"/>
			<path fill="#0079BE" d="M54.961,35.7c-0.823,0-1.337-0.559-1.337-1.249c0-0.735,0.528-1.264,1.352-1.264
				c0.822,0,1.337,0.528,1.352,1.264c0,0.69-0.529,1.249-1.352,1.249H54.961z M53.639,43.679v-7.229h2.659v7.229H53.639z"/>
			<path fill="#0079BE" d="M59.252,35.7c-0.823,0-1.337-0.559-1.337-1.249c0-0.735,0.528-1.264,1.352-1.264
				c0.822,0,1.337,0.528,1.352,1.264c0,0.69-0.529,1.249-1.352,1.249H59.252z M57.93,43.679v-7.229h2.659v7.229H57.93z"/>
			<path fill="#0079BE" d="M62.222,38.918c0-0.97-0.03-1.793-0.06-2.469h2.293l0.117,0.926h0.044
				c0.265-0.382,0.97-1.088,2.175-1.088c1.69,0,2.615,1.146,2.615,3.13v4.262h-2.659V39.74c0-0.837-0.279-1.322-0.926-1.322
				c-0.515,0-0.749,0.353-0.867,0.632c-0.059,0.133-0.073,0.338-0.073,0.529v4.1h-2.659V38.918z"/>
			<path fill="#0079BE" d="M73.832,34.392v2.058h1.499v1.939h-1.499v2.072c0,0.852,0.19,1.205,0.838,1.205
				c0.309,0,0.411,0,0.632-0.06v2.014c-0.309,0.117-0.896,0.205-1.572,0.205c-0.779,0-1.426-0.278-1.808-0.661
				c-0.441-0.44-0.676-1.146-0.676-2.248v-2.527H70.35v-1.939h0.896v-1.352L73.832,34.392z"/>
			<path fill="#0079BE" d="M78.638,40.989c0.089,0.573,0.926,0.896,1.866,0.896c0.677,0,1.323-0.073,1.97-0.279l0.338,1.764
				c-0.867,0.338-1.808,0.455-2.704,0.455c-2.542,0-3.982-1.396-3.982-3.688c0-1.676,1.088-3.851,3.747-3.851
				c2.337,0,3.336,1.72,3.336,3.703c0,0.427-0.059,0.823-0.103,0.999H78.638z M80.769,39.197c0-0.412-0.19-1.176-1.028-1.176
				c-0.779,0-1.087,0.72-1.132,1.176H80.769z"/>
			<path fill="#0079BE" d="M85.723,35.7c-0.823,0-1.337-0.559-1.337-1.249c0-0.735,0.528-1.264,1.352-1.264
				c0.822,0,1.337,0.528,1.352,1.264c0,0.69-0.529,1.249-1.352,1.249H85.723z M84.4,43.679v-7.229h2.659v7.229H84.4z"/>
			<path fill="#0079BE" d="M88.766,41.445c0.411,0.25,1.352,0.544,1.998,0.544c0.573,0,0.794-0.118,0.794-0.397
				c0-0.264-0.162-0.367-0.94-0.617c-1.602-0.499-2.146-1.366-2.131-2.204c0-1.439,1.234-2.483,3.145-2.483
				c0.882,0,1.675,0.206,2.146,0.412l-0.427,1.792c-0.338-0.161-1.014-0.396-1.602-0.396c-0.455,0-0.72,0.118-0.72,0.411
				c0,0.235,0.235,0.383,1.087,0.662c1.426,0.455,1.97,1.204,1.984,2.233c0,1.381-1.073,2.424-3.307,2.424
				c-1.014,0-1.91-0.22-2.483-0.514L88.766,41.445z"/>
			<path fill="#0079BE" d="M98.229,34.392v2.058h1.499v1.939h-1.499v2.072c0,0.852,0.19,1.205,0.838,1.205
				c0.309,0,0.411,0,0.632-0.06v2.014c-0.309,0.117-0.896,0.205-1.572,0.205c-0.779,0-1.426-0.278-1.808-0.661
				c-0.441-0.44-0.676-1.146-0.676-2.248v-2.527h-0.896v-1.939h0.896v-1.352L98.229,34.392z"/>
			<path fill="#0079BE" d="M104.358,43.841c-2.16,0-3.836-1.367-3.836-3.718c0-2.308,1.514-3.836,3.982-3.836
				c2.263,0,3.762,1.528,3.762,3.703c0,2.631-1.881,3.851-3.894,3.851H104.358z M102.786,35.582c-0.661,0-1.176-0.514-1.176-1.161
				c0-0.676,0.515-1.16,1.19-1.16c0.632,0,1.116,0.484,1.116,1.16c0,0.647-0.484,1.161-1.116,1.161H102.786z M104.432,41.975
				c0.72,0,1.102-0.75,1.102-1.911c0-0.999-0.323-1.91-1.102-1.91c-0.882,0-1.176,0.955-1.176,1.91c0,1.088,0.353,1.911,1.161,1.911
				H104.432z M106.019,35.582c-0.646,0-1.146-0.514-1.146-1.161c0-0.676,0.5-1.16,1.176-1.16c0.646,0,1.132,0.484,1.132,1.16
				c0,0.647-0.485,1.161-1.132,1.161H106.019z"/>
			<path fill="#0079BE" d="M112.546,33.774h2.659v7.686h3.807v2.219h-6.466V33.774z"/>
			<path fill="#0079BE" d="M120.307,33.774h2.63v4.203h0.029c0.206-0.367,0.427-0.735,0.632-1.088l1.91-3.115h3.263l-3.145,4.218
				l3.262,5.687h-3.071l-2.086-4.012l-0.794,1.014v2.998h-2.63V33.774z"/>
			<path fill="#0079BE" d="M132.152,43.679l-3.145-9.904h2.909l1.058,3.895c0.309,1.116,0.573,2.204,0.823,3.468h0.029
				c0.235-1.205,0.515-2.352,0.809-3.424l1.072-3.938h2.821l-3.232,9.904H132.152z"/>
		</g>
	</g>
</g>
</svg>
